<?xml version="1.0" encoding="utf-8"?>
<!-- Generator: Adobe Illustrator 24.3.0, SVG Export Plug-In . SVG Version: 6.00 Build 0)  -->
<svg version="1.1" id="Layer_2" xmlns="http://www.w3.org/2000/svg" xmlns:xlink="http://www.w3.org/1999/xlink" x="0px" y="0px"
	 viewBox="0 0 1000 1000" style="enable-background:new 0 0 1000 1000;" xml:space="preserve">
<style type="text/css">
	.st0{fill:#037F8C;}
</style>
<g>
	<g>
		<path class="st0" d="M77,919.28v-22.89h31.55c35.46,0,60.62-11.34,75.47-34.02c9.07-13.61,13.61-44.12,13.61-91.55V228.93
			c0-52.37-5.78-85.15-17.32-98.36c-16.08-18.14-40.01-27.22-71.76-27.22H77V80.46h341.46c125.36,0,220.73,14.23,286.1,42.68
			c65.36,28.46,117.94,75.88,157.74,142.28C902.1,331.83,922,408.53,922,495.54c0,116.71-35.47,214.25-106.4,292.59
			c-79.6,87.43-200.84,131.14-363.73,131.14H77z M316.4,858.66c52.37,11.55,96.29,17.32,131.76,17.32
			c95.67,0,175.06-33.61,238.16-100.83c63.1-67.21,94.65-158.36,94.65-273.42c0-115.88-31.55-207.23-94.65-274.04
			S542.18,127.48,443.21,127.48c-37.12,0-79.39,5.98-126.81,17.94V858.66z"/>
	</g>
</g>
</svg>
